<?xml version="1.0" encoding="utf-8"?>
<!-- Generator: Adobe Illustrator 19.0.0, SVG Export Plug-In . SVG Version: 6.00 Build 0)  -->
<svg version="1.1" xmlns="http://www.w3.org/2000/svg" xmlns:xlink="http://www.w3.org/1999/xlink" x="0px" y="0px"
	 viewBox="0 0 146.3 173.6" style="enable-background:new 0 0 146.3 173.6;" xml:space="preserve">
<style type="text/css">
	.st0{fill:#8ACA8B;}
	.st1{fill:#FFFFFF;}
	.st2{display:none;}
	.st3{display:inline;}
	.st4{display:inline;fill:#FFFFFF;}
</style>
<g id="Layer_1">
	<path id="XMLID_29_" class="st0" d="M115.1,1.2c-15.4-3.9-25,3.8-32.4,35.1c-2.8,11.8-4.1,23-4,32.6c-2.8-0.5-5.7-0.7-8.6-0.7
		c-2.8,0-5.5,0.2-8.1,0.6c0.1-9.6-1.2-20.8-4-32.5C50.4,5.1,40.9-2.7,25.5,1.2C11.7,4.8,8.8,15,16.3,46.3C20,62.1,25.8,75.7,32,85.1
		c-4.8,5.2-8.6,11.5-11,18.4c0,0.1-0.1,0.3-0.1,0.4c-0.2,0.6-0.4,1.2-0.6,1.8c-0.1,0.4-0.2,0.8-0.4,1.3c-0.1,0.3-0.2,0.7-0.3,1
		c-0.2,0.7-0.3,1.4-0.5,2.1c0,0.1,0,0.2-0.1,0.3c-0.7,3.4-1,6.8-1,10.4c0,0,0,0,0,0c0,0,0,0.1,0,0.1c0,29,23.2,52.5,51.9,52.5
		c18,0,33.9-9.3,43.2-23.4c5.7-8.3,9-18.4,9-29.3c0-13.6-5.2-26-13.8-35.3c6.3-9.4,12.1-23.1,15.9-39C131.8,15,128.9,4.8,115.1,1.2z
		 M30.5,64.4c-10.2-27.2-15.2-50.6-2.4-53.9C45.2,6.1,49.3,30.6,53.5,57c0.7,4.6,0.8,9.3,1.6,13.5c-6.5,2-12.4,5.2-17.6,9.4
		C35.1,74.9,32.7,70.2,30.5,64.4z M55.3,118.3c-4.2,0-7.7-3.4-7.7-7.7c0-4.2,3.4-7.7,7.7-7.7s7.7,3.4,7.7,7.7
		C63,114.8,59.6,118.3,55.3,118.3z M85.3,118.3c-4.2,0-7.7-3.4-7.7-7.7c0-4.2,3.4-7.7,7.7-7.7c4.2,0,7.7,3.4,7.7,7.7
		C92.9,114.8,89.5,118.3,85.3,118.3z M110.2,64.4C108,70.3,105.5,75,103,80c-4-3.3-8.1-5.7-12.7-7.6c-1.6-0.7-3.2-1.3-4.8-1.8
		c0.9-4.2,0.9-9,1.7-13.6c4.2-26.4,8.3-51,25.4-46.5C125.4,13.8,120.3,37.2,110.2,64.4z"/>
	<path id="XMLID_28_" class="st1" d="M90.9,135.4c-2.5,4.5-5.8,18.8-17.3,10.7c-1-0.7-2.3-2-2.1-3.7c0.1-0.8,0.4-3.1,1.4-4.1
		c0.7-0.7,2-1,2.8-3.7c0.7-2.3,1.3-3.9-1.9-3.9c-1.2,0-5.8,0-7,0c-3.2,0-2.6,1.6-1.9,3.9c0.8,2.7,2.1,3,2.8,3.7
		c1.5,1.4,1.3,3.3,1.4,4.1c0.2,1.7-1.1,3-2.1,3.7c-11.4,8.1-14.8-6.2-17.3-10.7c-0.3-0.5-2.7-1.8-1.9,1.5
		c3.8,15.6,14.9,14.1,18.1,12.2c1.9-1.1,3.3-2,4.4-3.7c1.1,1.7,2.5,2.6,4.4,3.7c3.2,1.9,14.3,3.4,18.1-12.2
		C93.6,133.6,91.2,134.9,90.9,135.4z"/>
</g>
<g id="Layer_2" class="st2">
	<g id="XMLID_15_" class="st3">
		<g id="XMLID_17_">
			<path id="XMLID_18_" class="st0" d="M129.5,39.4c-3.2,2.3-8.2,0.7-11.1-2.1c-2.8-2.8-4.4-7.4-2.4-10.6
				c-6.8-2.5-13.7-0.7-19.2,4.8c0,0-103.5,115.7-95.9,123.3c7.6,7.6,123.3-95.9,123.3-95.9C129.9,53,132.9,46.8,129.5,39.4z"/>
		</g>
		<path id="XMLID_16_" class="st1" d="M139.1,26.7c-0.1-0.2-0.2-0.4-0.3-0.5l5.8-3.8c1.3-0.9,1.7-2.7,0.8-4c-0.9-1.3-2.7-1.7-4-0.8
			l-1.3,0.9c-0.3-0.7-0.7-1.3-1.3-1.9c-0.4-0.4-0.8-0.7-1.3-0.9l2-3.1c0.9-1.3,0.5-3.1-0.9-4c-1.3-0.9-3.1-0.5-4,0.9l-2.5,3.9
			c-0.3-0.5-0.7-0.9-1.2-1.1c-1.4-0.7-3.2-0.1-3.9,1.3l-6.4,13.2c-1.4,2.2-1.2,5.2,0.8,7.1c1.4,1.4,3.4,1.9,5.3,1.5
			c0.3,0,11.6-5.2,11.6-5.2C139.4,29.7,139.8,28.1,139.1,26.7z"/>
	</g>
</g>
<g id="Layer_3" class="st2">
	<g id="XMLID_43_" class="st3">
		<path id="XMLID_44_" class="st0" d="M38.3,96.4l15.7-10.8l15.7,10.8l15.7-10.8l15.7,10.8L117,85.6l4.9,3.4
			c-0.1-4.6-0.7-9.2-1.6-13.8l-3.2,2.2l-15.7-10.8L85.5,77.4L69.8,66.5L54.1,77.4L38.3,66.5L22.6,77.4l-2.4-1.7
			c-0.8,4.1-1.3,8.3-1.4,12.5l3.9-2.7L38.3,96.4z M100.9,76.3c3.1,0,5.6,2.5,5.6,5.6c0,3.1-2.5,5.6-5.6,5.6c-3.1,0-5.6-2.5-5.6-5.6
			C95.4,78.8,97.9,76.3,100.9,76.3z M69.8,76.3c3.1,0,5.6,2.5,5.6,5.6c0,3.1-2.5,5.6-5.6,5.6c-3.1,0-5.6-2.5-5.6-5.6
			C64.2,78.8,66.7,76.3,69.8,76.3z M38.3,76.3c3.1,0,5.6,2.5,5.6,5.6c0,3.1-2.5,5.6-5.6,5.6c-3.1,0-5.6-2.5-5.6-5.6
			C32.8,78.8,35.3,76.3,38.3,76.3z"/>
	</g>
	<path id="XMLID_42_" class="st4" d="M101.3,104.1L85.6,93.2l-15.7,10.8L54.1,93.2l-15.7,10.8L22.6,93.2l-3.9,2.7c0,2.2,0,4.5,0,5.2
		c2.2,29,23.1,51.6,51.6,51.6c28.5,0,50.3-22.6,51.6-51.6c0-0.7,0-2.6,0-4.5l-4.9-3.4L101.3,104.1z"/>
	<path id="XMLID_41_" class="st4" d="M38.3,58.9l15.7,10.8l15.7-10.8l15.7,10.8l15.7-10.8L117,69.7l1.9-1.3
		c-8-28.6-30.1-52.3-48.6-52.3c-19.9,0-41.4,24-48.9,52.8l1.1,0.8L38.3,58.9z"/>
</g>
</svg>
