<?xml version="1.0" encoding="utf-8"?>
<!-- Generator: Adobe Illustrator 19.0.0, SVG Export Plug-In . SVG Version: 6.00 Build 0)  -->
<svg version="1.1" id="Layer_1" xmlns="http://www.w3.org/2000/svg" xmlns:xlink="http://www.w3.org/1999/xlink" x="0px" y="0px"
	 viewBox="0 0 111.8 139.8" style="enable-background:new 0 0 111.8 139.8;" xml:space="preserve">
<style type="text/css">
	.st0{fill:#FFFFFF;}
</style>
<path class="st0" d="M110.7,129.5l-4.2-91.8c-0.2-4.7-4.1-8.4-8.8-8.4H77.9v-5.5C77.9,11.8,68.1,2,56,2c-12.1,0-21.9,9.8-21.9,21.9
	v5.5H14.3c-4.7,0-8.6,3.7-8.8,8.4l-4.2,91.8c-0.1,2.4,0.8,4.7,2.4,6.5c1.7,1.7,4,2.7,6.4,2.7h91.8c2.4,0,4.7-1,6.4-2.7
	C109.9,134.3,110.8,131.9,110.7,129.5z M46.4,23.9c0-5.3,4.3-9.6,9.6-9.6c5.3,0,9.6,4.3,9.6,9.6v5.5H46.4V23.9z M19.5,121l3.4-73.8
	h11.2v11.6c0,3.4,2.8,6.2,6.2,6.2c3.4,0,6.2-2.8,6.2-6.2V47.1h19.1v11.6c0,3.4,2.8,6.2,6.2,6.2c3.4,0,6.2-2.8,6.2-6.2V47.1h11.2
	l3.4,73.8H19.5z"/>
</svg>
